<?xml version="1.0" encoding="utf-8"?>
<!-- Generator: Adobe Illustrator 21.0.0, SVG Export Plug-In . SVG Version: 6.00 Build 0)  -->
<svg version="1.1" id="Capa_1" xmlns="http://www.w3.org/2000/svg" xmlns:xlink="http://www.w3.org/1999/xlink" x="0px" y="0px" width="18px" height="18px" viewBox="0 0 512 512" style="enable-background:new 0 0 512 512;" xml:space="preserve">
<g>
	<g>
		<path d="M181.7,53.3c0.6,0.3,1.1,0.5,1.6,0.8c-0.5-0.3-1-0.7-1.4-1C181.8,53.2,181.7,53.2,181.7,53.3z"/>
		<path d="M477.2,279.8c11,9.4,16.8,23.6,16,39c-0.6,12.4-5.6,24.5-13.9,34.3L375.5,474.4c-2.3,2.6-4.7,5-7.3,7.1
			c12.9-3.1,24.7-10.1,33.7-20.6L494,353.3c9.3-10.8,14.7-24.4,15.5-38.2c0.9-17.8-6-34.3-18.9-45.4L220.7,39
			c-10.9-9.4-27.2-12.6-40.9-13.4L477.2,279.8z"/>
		<path d="M372.1,471.5l103.8-121.3c7.7-9,12.3-20.2,12.9-31.6c0.7-14-4.5-26.9-14.5-35.3L172.7,25.3c-1.2,0-2.4,0-3.5,0
			c-14.8,0.4-42.8,5.4-58.4,23.7L18.5,156.8c-9.2,10.8-14.7,24.4-15.5,38.1c-0.8,15.7,4.2,27.1,9.5,34.7l293.2,250.7
			c0.1,0.1,0.3,0.2,0.4,0.3c9.6,4.7,21.2,7.3,35.5,5c9.8-1.3,12.5-1.6,15.9-2C362.8,480.5,367.8,476.5,372.1,471.5z M41.3,237.4
			c-12.9-11.1-19.8-27.6-18.9-45.3c0.7-13.8,6.2-27.3,15.5-38.1l72.9-89.7c15.7-18.3,27-22.9,41.8-23.3c8.5,0,15.9,2.9,21.2,5.8
			l0.1-0.1l0.9,0.6c2.2,1.3,3.8,2.5,5.1,3.5l10.7,7.5l1.6,1.4c-2.7-2.2-5.6-4-8.8-5.5c0.9,0.5,1.7,1,2.5,1.7l6.4,3.9l101.6,86.6
			l-9.5,11.2l0.3,0.2L164.3,298.4l-20.6,24.2L41.3,237.4z"/>
	</g>
</g>
</svg>
