<?xml version="1.0" encoding="utf-8"?>
<!-- Generator: Adobe Illustrator 21.0.0, SVG Export Plug-In . SVG Version: 6.00 Build 0)  -->
<svg version="1.1" id="Layer_1" xmlns="http://www.w3.org/2000/svg" xmlns:xlink="http://www.w3.org/1999/xlink" x="0px" y="0px"
	 width="18px" height="18px" viewBox="0 0 512 512" style="enable-background:new 0 0 512 512;" xml:space="preserve">
<path d="M140.3,269.9c-6.4,1.4-13,2.1-19.7,2.1C39.4,272-7.1,217.8-7.1,137.2C-7.1,41.5,69.8,0,157.3,0
	c-7.1,10.4-36.5,46.9-36.5,58.7c0,7,4,13,10.6,15.5c62.2,23.6,76.5,66.5,77.4,112.9C175,202.7,149.2,233.2,140.3,269.9L140.3,269.9z
	 M504.9,460.6c0-14.4-6.4-27.9-15.7-38.2C314.9,228.2,310.8,208,259.5,208c-48.8,0-90.6,40.5-90.6,90.2c0,59,43.4,93.2,244.8,200.6
	c13.7,7,28.5,13.2,43.9,13.2C485.2,512,504.9,487.3,504.9,460.6z"/>
</svg>
